<?xml version="1.0" encoding="UTF-8" standalone="no"?>
<svg
   xmlns:dc="http://purl.org/dc/elements/1.1/"
   xmlns:cc="http://creativecommons.org/ns#"
   xmlns:rdf="http://www.w3.org/1999/02/22-rdf-syntax-ns#"
   xmlns:svg="http://www.w3.org/2000/svg"
   xmlns="http://www.w3.org/2000/svg"
   xmlns:sodipodi="http://sodipodi.sourceforge.net/DTD/sodipodi-0.dtd"
   xmlns:inkscape="http://www.inkscape.org/namespaces/inkscape"
   version="1.1"
   width="32"
   height="32"
   viewBox="0 0 32 32"
   id="svg4"
   sodipodi:docname="github.svg"
   inkscape:version="1.0.2 (e86c870, 2021-01-15)">
  <metadata
     id="metadata10">
    <rdf:RDF>
      <cc:Work
         rdf:about="">
        <dc:format>image/svg+xml</dc:format>
        <dc:type
           rdf:resource="http://purl.org/dc/dcmitype/StillImage" />
      </cc:Work>
    </rdf:RDF>
  </metadata>
  <defs
     id="defs8" />
  <sodipodi:namedview
     pagecolor="#ffffff"
     bordercolor="#666666"
     borderopacity="1"
     objecttolerance="10"
     gridtolerance="10"
     guidetolerance="10"
     inkscape:pageopacity="0"
     inkscape:pageshadow="2"
     inkscape:window-width="1024"
     inkscape:window-height="705"
     id="namedview6"
     showgrid="false"
     inkscape:zoom="11.75"
     inkscape:cx="16"
     inkscape:cy="16"
     inkscape:window-x="-8"
     inkscape:window-y="-8"
     inkscape:window-maximized="1"
     inkscape:current-layer="svg4" />
  <path
     fill="#444444"
     d="m 16.000212,0.23661702 c -8.8282474,0 -15.98516945,7.36693288 -15.98516945,16.45423398 0,7.270135 4.57940425,13.437356 10.93272245,15.612383 0.799329,0.151064 1.091419,-0.35786 1.091419,-0.791985 0,-0.391593 -0.01425,-1.689569 -0.0228,-3.062344 C 7.570917,29.443286 6.6319539,26.50854 6.6319539,26.50854 5.9038657,24.607774 4.8566155,24.101783 4.8566155,24.101783 c -1.4533268,-1.020781 0.109712,-1.000248 0.109712,-1.000248 1.6043587,0.114398 2.4507079,1.695436 2.4507079,1.695436 1.426255,2.515287 3.7430286,1.787834 4.6520706,1.365442 0.145333,-1.060381 0.558533,-1.787834 1.014479,-2.197027 -3.5478271,-0.415059 -7.2808822,-1.827434 -7.2808822,-8.132519 0,-1.798101 0.6240756,-3.263274 1.644254,-4.416053 C 7.2845262,10.998822 6.7331169,9.3253852 7.605113,7.060893 c 0,0 1.3407652,-0.4414586 4.395601,1.6866361 1.273798,-0.36666 2.641635,-0.5470568 3.999498,-0.5529233 1.357864,0.00587 2.725701,0.1891965 4.002348,0.5558566 3.049137,-2.131028 4.392752,-1.6866361 4.392752,-1.6866361 0.873421,2.2659589 0.323436,3.9379287 0.159581,4.3544547 1.024453,1.151312 1.642829,2.617952 1.642829,4.416053 0,6.321218 -3.738754,7.71306 -7.299405,8.120785 0.575631,0.510391 1.084296,1.51064 1.084296,3.044745 0,2.19996 -0.02137,3.973128 -0.02137,4.515785 0,0.438525 0.290666,0.950383 1.099969,0.789052 6.347619,-2.179427 10.922748,-8.345182 10.922748,-15.612383 0,-9.0858349 -7.156922,-16.45423434 -15.985169,-16.45423434 z"
     id="path2"
     style="fill:#000000;stroke-width:1.44558" />
</svg>
