<?xml version="1.0" standalone="no"?>
<!DOCTYPE svg PUBLIC "-//W3C//DTD SVG 20010904//EN"
 "http://www.w3.org/TR/2001/REC-SVG-20010904/DTD/svg10.dtd">
<svg version="1.0" xmlns="http://www.w3.org/2000/svg"
 width="150.000000pt" height="140.000000pt" viewBox="0 0 150.000000 140.000000"
 preserveAspectRatio="xMidYMid meet">

<g transform="translate(0.000000,140.000000) scale(0.100000,-0.100000)"
fill="#000000" stroke="none">
<path d="M405 1357 c-19 -27 -19 -54 1 -92 15 -30 12 -95 -5 -95 -5 0 -24 -29
-42 -64 l-34 -65 24 -53 c14 -29 26 -79 29 -111 3 -44 8 -60 23 -68 14 -7 19
-19 17 -37 -3 -24 -8 -27 -46 -30 -43 -3 -44 -4 -26 -23 10 -11 30 -19 49 -19
67 0 102 88 50 128 -38 30 -34 81 10 148 l36 53 -16 63 c-9 35 -21 67 -26 73
-12 12 -12 85 0 85 14 0 24 -18 100 -183 l72 -158 -12 -115 -12 -114 -238 0
c-130 0 -244 -3 -253 -6 -14 -5 -16 -28 -16 -145 0 -130 -1 -139 -19 -139 -44
0 -51 -10 -51 -69 0 -67 11 -81 61 -81 l36 0 6 -55 c3 -30 11 -67 19 -82 l13
-28 133 -2 133 -2 15 35 c8 19 17 55 21 79 6 45 16 57 26 31 12 -30 67 -48
130 -44 53 4 64 8 87 36 31 38 50 41 50 9 0 -35 30 -130 47 -149 13 -15 38
-17 183 -17 146 0 170 2 182 17 25 29 40 78 46 154 7 72 7 72 40 79 29 6 34 3
48 -22 13 -26 20 -29 63 -29 42 0 49 3 61 27 13 28 27 115 36 229 7 81 -13
132 -55 140 -31 6 -51 38 -34 54 4 5 26 10 47 12 50 4 71 32 41 54 -25 19 -74
11 -97 -16 -25 -31 -34 -25 -47 33 -16 72 -44 115 -89 135 -31 14 -68 16 -238
14 l-201 -3 -49 77 c-27 43 -79 125 -116 183 -41 63 -68 115 -68 131 0 39 -27
58 -83 58 -37 0 -50 -4 -62 -21z m26 -9 c-4 -13 -5 -35 0 -50 8 -29 -4 -39
-15 -12 -10 25 -7 59 6 72 17 17 19 15 9 -10z m57 -3 c-8 -19 -8 -31 1 -51 9
-20 9 -25 -1 -22 -24 8 -22 98 1 98 7 0 6 -9 -1 -25z m52 -162 c0 -7 -2 -13
-5 -13 -6 0 -35 56 -35 67 1 13 40 -41 40 -54z m179 -247 c78 -131 140 -240
138 -243 -3 -2 -14 8 -24 24 -34 48 -293 500 -293 509 0 11 5 3 179 -290z
m-313 154 c-17 -32 -32 -56 -34 -51 -4 13 49 122 58 116 4 -2 -6 -32 -24 -65z
m158 55 c3 -8 1 -15 -4 -15 -6 0 -10 7 -10 15 0 8 2 15 4 15 2 0 6 -7 10 -15z
m34 -76 c2 -23 2 -23 -13 -5 -18 24 -20 39 -2 34 6 -3 13 -15 15 -29z m62 -92
c0 -5 -8 -7 -17 -5 -12 2 -19 14 -21 33 l-3 30 20 -25 c12 -14 21 -29 21 -33z
m15 -37 c3 -5 -1 -10 -9 -10 -8 0 -18 5 -21 10 -3 6 1 10 9 10 8 0 18 -4 21
-10z m443 -137 l3 -113 -90 0 c-80 0 -92 2 -101 20 -10 19 -7 20 37 21 26 1
54 1 60 0 7 -1 22 3 33 9 17 9 20 21 20 69 0 36 -5 63 -13 69 -8 7 -67 13
-137 14 -89 2 -125 7 -128 16 -3 10 30 12 155 10 l158 -3 3 -112z m-414 98 c4
-5 0 -11 -6 -14 -20 -7 54 -139 86 -155 31 -15 35 -42 6 -42 -15 0 -33 25 -75
110 -49 97 -53 110 -36 110 11 0 22 -4 25 -9z m346 -31 c13 -7 20 -21 20 -40
0 -35 -10 -38 -35 -10 -19 21 -41 28 -29 8 5 -8 2 -9 -10 -5 -19 7 -17 2 16
-45 l19 -28 -28 0 c-23 1 -34 11 -65 60 -20 32 -34 60 -32 63 9 9 125 7 144
-3z m184 -12 c14 -13 31 -44 38 -71 14 -54 6 -67 -44 -67 -23 0 -28 4 -28 25
0 14 4 25 10 25 5 0 7 -7 4 -15 -10 -24 3 -17 26 15 17 23 19 34 10 50 -15 29
-29 25 -45 -12 l-14 -33 -1 53 c0 28 4 52 9 52 6 0 21 -10 35 -22z m-574 -61
c0 -17 10 -37 25 -51 38 -36 33 -56 -15 -56 l-40 0 0 49 c0 67 10 116 21 99 5
-7 9 -26 9 -41z m779 -36 c7 -5 12 -14 9 -21 -2 -7 -10 -4 -22 9 -19 21 -12
28 13 12z m-49 -21 c0 -5 -2 -10 -4 -10 -3 0 -8 5 -11 10 -3 6 -1 10 4 10 6 0
11 -4 11 -10z m-170 -126 c0 -41 -4 -63 -10 -59 -5 3 -10 33 -10 66 0 33 4 59
10 59 6 0 10 -29 10 -66z m-155 26 c-11 -5 -39 -14 -62 -20 l-43 -11 0 -84 c0
-85 -5 -115 -21 -115 -5 0 -9 51 -9 114 l0 115 43 4 c23 2 58 4 77 5 28 0 31
-1 15 -8z m-215 -10 c0 -6 -120 -10 -340 -10 -220 0 -340 4 -340 10 0 6 120
10 340 10 220 0 340 -4 340 -10z m560 -3 c0 -1 -9 -20 -20 -42 -14 -27 -20
-59 -20 -102 0 -61 -1 -63 -26 -63 l-27 0 6 74 c7 90 28 136 62 136 14 0 25
-1 25 -3z m-262 -40 c7 -6 20 -24 29 -41 l16 -31 -24 21 c-37 32 -47 36 -69
24 -39 -21 -80 -141 -80 -237 0 -30 -3 -33 -30 -33 -34 0 -34 -2 -16 100 31
176 103 257 174 197z m-954 -9 c15 -25 -3 -52 -37 -56 -21 -3 -28 2 -33 22 -3
14 -3 33 0 42 8 20 55 15 70 -8z m694 10 c28 -28 7 -78 -33 -78 -27 0 -45 18
-45 45 0 27 18 45 45 45 12 0 26 -5 33 -12z m-718 -138 c0 -43 -3 -50 -20 -50
-17 0 -20 7 -20 50 0 43 3 50 20 50 17 0 20 -7 20 -50z m1250 -25 c0 -35 -4
-67 -10 -70 -6 -4 -10 22 -10 70 0 48 4 74 10 70 6 -3 10 -35 10 -70z m-540
15 c0 -43 -3 -50 -20 -50 -17 0 -20 7 -20 50 0 43 3 50 20 50 17 0 20 -7 20
-50z m269 17 c40 -74 26 -317 -18 -317 -6 0 -4 15 5 36 20 49 20 210 -1 259
-17 43 -18 45 -7 45 5 0 14 -10 21 -23z m-20 -58 c14 -62 14 -79 0 -56 -14 24
-25 14 -33 -27 -7 -38 9 -91 24 -81 13 8 13 -27 -1 -62 l-11 -28 -16 35 c-29
66 -15 295 17 276 5 -4 14 -29 20 -57z m211 -29 c0 -12 -27 -24 -77 -35 -52
-11 -43 20 10 32 57 14 67 15 67 3z m-422 -11 c25 -10 31 -56 10 -77 -16 -16
-829 -17 -859 -2 -28 16 -26 68 4 80 28 11 814 10 845 -1z m112 -171 l0 -58
-125 0 -125 0 0 58 0 57 125 0 125 0 0 -57z m-700 12 l0 -40 -95 0 -95 0 0 40
0 40 95 0 95 0 0 -40z"/>
<path d="M157 559 c4 -13 9 -17 15 -11 11 11 3 32 -12 32 -4 0 -6 -9 -3 -21z"/>
<path d="M852 555 c7 -16 15 -22 21 -16 13 13 1 41 -17 41 -13 0 -14 -4 -4
-25z"/>
</g>
</svg>
